<svg xmlns="http://www.w3.org/2000/svg" viewBox="0 0 283.46 283.46"><title>LogoRecurso 1</title><g id="Capa_2" data-name="Capa 2"><g id="Capa_1-2" data-name="Capa 1"><path id="Rectángulo_Logo" data-name="Rectángulo Logo" d="M274.39,283.46H9.07A9.07,9.07,0,0,1,0,274.39v-246L28.35,0h246a9.07,9.07,0,0,1,9.07,9.07V274.39A9.07,9.07,0,0,1,274.39,283.46Z" style="fill:#dd351c"/><path d="M176.15,134.44h78.9v12.8H191.36v36.33h59.37v12.8H191.36V235.9h64.17v12.8H176.15Z" style="fill:#111110;stroke:#111110;stroke-miterlimit:10;stroke-width:11px"/><path d="M134.36,167.22q-1.29-12.43-9-17.93-7.6-5.65-19.55-5.65a47.33,47.33,0,0,0-9.53,1,26.16,26.16,0,0,0-8.4,3.24A17.67,17.67,0,0,0,82,154a18.86,18.86,0,0,0-2.1,9.37A12.49,12.49,0,0,0,83,172.07a25,25,0,0,0,8.4,5.33,78.61,78.61,0,0,0,12,3.55c4.41.87,8.93,1.83,13.57,2.91a141,141,0,0,1,13.57,3.88,41.84,41.84,0,0,1,11.79,5.81,27.19,27.19,0,0,1,8.24,9.54q3.22,5.66,3.23,14a28.92,28.92,0,0,1-4.2,15.83,34.26,34.26,0,0,1-10.5,10.67,48.7,48.7,0,0,1-14.54,6,66.51,66.51,0,0,1-15.83,1.94,68.74,68.74,0,0,1-18.42-2.42,45.51,45.51,0,0,1-15.19-7.43,37.15,37.15,0,0,1-10.34-12.6A42,42,0,0,1,61,210.84H75.56A24.49,24.49,0,0,0,85.74,232a32.22,32.22,0,0,0,10.66,5,49.81,49.81,0,0,0,12.76,1.62,56.54,56.54,0,0,0,10.34-1,32.44,32.44,0,0,0,9.53-3.23,19.58,19.58,0,0,0,6.79-6.47,18.86,18.86,0,0,0,2.58-10.33,14.28,14.28,0,0,0-3.23-9.7,21.74,21.74,0,0,0-8.24-6,55.85,55.85,0,0,0-11.79-3.88q-6.63-1.62-13.57-3.07T88,191.62a50.83,50.83,0,0,1-12-5.5,27.77,27.77,0,0,1-8.4-8.56q-3.06-5.17-3.07-13.08A30.07,30.07,0,0,1,77.5,139a41,41,0,0,1,13.41-6.14,57.88,57.88,0,0,1,15.5-2.1,61.61,61.61,0,0,1,16.48,2.1,36.62,36.62,0,0,1,13.25,6.62,33,33,0,0,1,9.05,11.47,39.18,39.18,0,0,1,3.71,16.32Z" style="fill:#111110;stroke:#111110;stroke-miterlimit:10;stroke-width:11px"/><path d="M28.35,19.84V0L0,28.35H19.84A8.51,8.51,0,0,0,28.35,19.84Z" style="fill:#871e13"/></g></g></svg>